<?xml version="1.0" encoding="utf-8"?>
<!-- Generator: Adobe Illustrator 16.0.3, SVG Export Plug-In . SVG Version: 6.00 Build 0)  -->
<!DOCTYPE svg PUBLIC "-//W3C//DTD SVG 1.1//EN" "http://www.w3.org/Graphics/SVG/1.1/DTD/svg11.dtd">
<svg version="1.1" id="Capa_1" xmlns="http://www.w3.org/2000/svg" xmlns:xlink="http://www.w3.org/1999/xlink" x="0px" y="0px"
	 width="500px" height="500px" viewBox="0 0 500 500" enable-background="new 0 0 500 500" xml:space="preserve">
<g>
	<path fill-rule="evenodd" clip-rule="evenodd" fill="#FFFFFF" d="M253.776-20.812c101.784,0.645,203.568,1.315,305.354,1.82
		c3.563,0.018,4.202,0.917,4.174,4.771c-1.175,169.266-2.251,338.53-3.186,507.797c-0.025,4.694-1.189,5.3-5.011,5.272
		c-203.083-1.401-406.169-2.682-609.253-3.864c-3.495-0.023-4.562-0.641-4.53-4.913c1.191-169.266,2.267-338.531,3.194-507.799
		c0.025-4.638,1.14-5.145,4.874-5.116C50.853-22.068,152.314-21.454,253.776-20.812z M321.804,315.063
		c-2.631,5.578-5.239,11.174-7.896,16.738c-13.613,28.522-28.356,56.411-38.937,86.633c-4.483,12.805-8.679,25.693-10.116,39.454
		c-1.187,11.336,4.709,18.591,14.051,17.338c4.934-0.668,8.184-3.806,10.27-8.795c3.168-7.572,4.385-15.847,7.057-23.597
		c19.851-57.544,44.26-112.43,76.216-162.932c3.007-4.756,5.754-9.639,6.755-15.461c0.891-5.178-1.442-11.996-5.002-14.398
		c-4.323-2.915-8.113-0.885-11.659,1.98c-2.229,1.799-4.443,3.681-6.39,5.837c-15.034,16.633-31.984,30.585-49.304,44.013
		c-5.593,4.337-11.476,8.176-17.803,11.055c-6.945,3.159-14.099,5.906-21.683,4.518c-13.461-2.456-21.898-17.65-19.907-34.527
		c1.946-16.483,6.761-31.945,13.069-46.858c24.392-57.656,58.551-107.318,100.11-150.773c13.497-14.111,27.936-27.023,44.195-37.105
		c6.402-3.969,13.125-7.189,20.648-7.102c7.681,0.091,12.324,5.645,12.062,14.119c-0.291,9.45-3.343,18.017-7.219,26.184
		c-13.541,28.537-32.208,52.371-54.345,72.974c-4.597,4.28-9.584,8.08-13.326,13.428c-2.913,4.167-4.265,8.538-1.592,13.479
		c2.518,4.656,7.49,6.789,12.685,5.394c4.293-1.153,8.225-3.276,11.868-6.041c17.513-13.303,31.507-30.601,44.19-49.255
		c12.924-19.006,21.85-39.946,24.604-63.975c2.884-25.164-10.619-54.589-42.791-46.165c-15.12,3.96-28.59,11.582-41.037,21.496
		c-46.724,37.215-83.929,84.347-114.286,138.362c-16.801,29.893-30.381,61.352-33.912,97.078
		c-1.523,15.413-0.323,30.202,7.013,43.938c9.284,17.385,23.293,24.689,41.071,20.765c8.491-1.876,16.333-5.745,23.965-10.186
		C303.749,327.249,312.432,320.646,321.804,315.063z M227.95,52.743c0.124,0.783,0.3,1.167,0.212,1.447
		c-0.859,2.717-1.711,5.441-2.658,8.122c-19.2,54.303-41.514,106.99-66.682,158.154c-14.42,29.313-29.511,58.225-48.394,84.345
		c-7.343,10.159-15.68,19.268-26.463,25.098c-16.981,9.187-30.865,2.658-36.444-17.55c-4.989-18.074-1.998-35.883,2.756-53.291
		c8.001-29.295,22.729-54.538,39.429-78.479c3.485-4.994,6.894-10.04,9.574-15.649c1.932-4.044,0.604-7.387-1.856-10.321
		c-2.37-2.823-5.25-3.258-8.392-1.466c-4.976,2.834-9.072,6.929-13.07,11.18c-30.208,32.118-48.688,71.286-55.887,116.976
		c-2.478,15.729-2.996,31.591,2.231,47.052c7.347,21.729,20.482,31.778,40.801,30.543c7.677-0.469,14.904-3.2,21.858-6.744
		c20.998-10.7,37.286-27.888,51.827-47.362c22.936-30.72,41.007-64.93,57.383-100.319c22.662-48.974,42.075-99.57,60.149-150.814
		c1.552-4.398,3.638-5.744,7.439-5.604c10.36,0.381,20.728,0.617,31.09,0.915c3.426,0.098,6.784-0.221,10.02-1.646
		c4.244-1.869,6.358-5.434,6.658-10.372c0.285-4.668-1.179-8.464-4.815-11.067c-2.214-1.583-4.616-2.523-7.181-3.1
		c-6.865-1.544-13.828-1.887-20.79-1.89c-35.178-0.025-69.754,4.978-103.435,16.567c-7.975,2.744-16.343,4.761-23.213,10.625
		c-4.145,3.538-5.626,8.32-4.621,13.93c0.859,4.795,3.51,8.199,7.718,9.549c3.876,1.242,7.706,0.053,11.392-1.474
		c11.7-4.844,23.695-8.556,35.883-11.456C209.59,56.473,218.659,53.906,227.95,52.743z"/>
	<path fill-rule="evenodd" clip-rule="evenodd" fill="#1C70AF" d="M321.804,315.063c-9.372,5.583-18.055,12.186-27.374,17.612
		c-7.632,4.44-15.474,8.31-23.965,10.186c-17.777,3.925-31.787-3.38-41.071-20.765c-7.335-13.736-8.536-28.525-7.013-43.938
		c3.531-35.727,17.111-67.186,33.912-97.078c30.357-54.015,67.563-101.147,114.286-138.362
		c12.447-9.915,25.917-17.536,41.037-21.496c32.172-8.424,45.675,21.001,42.791,46.165c-2.755,24.029-11.681,44.969-24.604,63.975
		c-12.684,18.654-26.678,35.952-44.19,49.255c-3.644,2.765-7.575,4.888-11.868,6.041c-5.194,1.395-10.167-0.738-12.685-5.394
		c-2.673-4.941-1.321-9.312,1.592-13.479c3.742-5.349,8.729-9.148,13.326-13.428c22.137-20.604,40.804-44.438,54.345-72.974
		c3.876-8.167,6.928-16.734,7.219-26.184c0.263-8.474-4.381-14.028-12.062-14.119c-7.523-0.088-14.246,3.133-20.648,7.102
		c-16.26,10.082-30.698,22.994-44.195,37.105c-41.56,43.455-75.719,93.118-100.11,150.773
		c-6.309,14.913-11.124,30.375-13.069,46.858c-1.991,16.877,6.446,32.071,19.907,34.527c7.584,1.389,14.737-1.358,21.683-4.518
		c6.327-2.879,12.21-6.718,17.803-11.055c17.319-13.428,34.27-27.38,49.304-44.013c1.946-2.156,4.161-4.038,6.39-5.837
		c3.546-2.865,7.336-4.895,11.659-1.98c3.56,2.402,5.893,9.22,5.002,14.398c-1.001,5.822-3.748,10.705-6.755,15.461
		c-31.956,50.502-56.365,105.388-76.216,162.932c-2.672,7.75-3.889,16.024-7.057,23.597c-2.086,4.989-5.336,8.127-10.27,8.795
		c-9.342,1.253-15.237-6.002-14.051-17.338c1.438-13.761,5.633-26.649,10.116-39.454c10.58-30.222,25.323-58.11,38.937-86.633
		C316.564,326.237,319.173,320.642,321.804,315.063z"/>
	<path fill-rule="evenodd" clip-rule="evenodd" fill="#139246" d="M227.95,52.743c-9.291,1.163-18.36,3.73-27.479,5.899
		c-12.188,2.899-24.183,6.612-35.883,11.456c-3.686,1.526-7.516,2.715-11.392,1.474c-4.208-1.351-6.859-4.754-7.718-9.549
		c-1.005-5.61,0.476-10.392,4.621-13.93c6.87-5.865,15.239-7.882,23.213-10.625c33.681-11.59,68.257-16.592,103.435-16.567
		c6.962,0.003,13.925,0.346,20.79,1.89c2.564,0.577,4.967,1.517,7.181,3.1c3.637,2.603,5.101,6.398,4.815,11.067
		c-0.3,4.938-2.414,8.503-6.658,10.372c-3.235,1.425-6.594,1.744-10.02,1.646c-10.362-0.297-20.729-0.533-31.09-0.915
		c-3.802-0.14-5.888,1.205-7.439,5.604c-18.074,51.244-37.488,101.841-60.149,150.814c-16.376,35.39-34.447,69.6-57.383,100.319
		c-14.541,19.475-30.829,36.662-51.827,47.362c-6.955,3.544-14.182,6.275-21.858,6.744c-20.318,1.235-33.454-8.814-40.801-30.543
		c-5.228-15.461-4.709-31.322-2.231-47.052c7.198-45.69,25.679-84.858,55.887-116.976c3.998-4.251,8.094-8.345,13.07-11.18
		c3.142-1.792,6.022-1.357,8.392,1.466c2.461,2.934,3.789,6.276,1.856,10.321c-2.68,5.609-6.089,10.656-9.574,15.649
		c-16.7,23.941-31.428,49.184-39.429,78.479c-4.754,17.408-7.745,35.217-2.756,53.291c5.579,20.208,19.462,26.736,36.444,17.55
		c10.783-5.83,19.12-14.938,26.463-25.098c18.883-26.12,33.974-55.032,48.394-84.345c25.168-51.164,47.482-103.852,66.682-158.154
		c0.947-2.68,1.799-5.404,2.658-8.122C228.25,53.909,228.074,53.525,227.95,52.743z"/>
</g>
</svg>
